<?xml version="1.0" encoding="utf-8"?><!-- Uploaded to: SVG Repo, www.svgrepo.com, Generator: SVG Repo Mixer Tools -->
<svg fill="#000000" width="800px" height="800px" viewBox="0 0 24 24" id="clock-alt" data-name="Flat Color" xmlns="http://www.w3.org/2000/svg" class="icon flat-color"><path id="secondary" d="M8.71,18.29a1,1,0,0,1,0,1.42l-2,2a1,1,0,0,1-1.42,0,1,1,0,0,1,0-1.42l2-2A1,1,0,0,1,8.71,18.29ZM18,2a4,4,0,0,0-3.61,2.29,1,1,0,0,0,0,.77,1,1,0,0,0,.53.56,7,7,0,0,1,3.49,3.49,1,1,0,0,0,.56.53,1,1,0,0,0,.77,0A4,4,0,0,0,18,2ZM6,2A4,4,0,0,0,4.29,9.61a1,1,0,0,0,.77,0,1,1,0,0,0,.56-.53A7,7,0,0,1,9.11,5.62a1,1,0,0,0,.53-.56,1,1,0,0,0,0-.77A4,4,0,0,0,6,2ZM16.71,18.29a1,1,0,0,0-1.42,1.42l2,2a1,1,0,0,0,1.42,0,1,1,0,0,0,0-1.42Z" style="fill: rgb(44, 169, 188);"></path><path id="primary" d="M20.2,8.29A8.93,8.93,0,0,0,15.71,3.8a9.05,9.05,0,0,0-7.42,0A9,9,0,1,0,21,12,8.87,8.87,0,0,0,20.2,8.29Z" style="fill: rgb(0, 0, 0);"></path><path id="secondary-2" data-name="secondary" d="M14,15a1,1,0,0,1-.71-.29l-2-2A1,1,0,0,1,11,12V8a1,1,0,0,1,2,0v3.59l1.71,1.7a1,1,0,0,1,0,1.42A1,1,0,0,1,14,15Z" style="fill: rgb(44, 169, 188);"></path></svg>